<svg width="650" height="707" viewBox="0 0 650 707" fill="none" xmlns="http://www.w3.org/2000/svg">
<path d="M518.786 16.5245C551.063 55.4745 491.331 137.552 511.748 186.667C538.461 250.928 633.98 252.411 646.626 324.054C659.461 396.769 620.525 481.383 575.293 546.673C526.371 617.287 459.912 680.177 386.361 699.727C313.674 719.047 242.418 691.936 186.166 650.1C136.322 613.029 125.153 538.523 93.0038 481.546C61.923 426.464 0.134647 390.715 0.324349 320.744C0.514375 250.652 44.7194 178.765 93.9657 126.722C137.522 80.6919 197.337 75.0323 251.89 54.8897C293.573 39.4988 333.577 28.7215 375.833 22.6474C424.805 15.6079 487.996 -20.6323 518.786 16.5245Z" fill="#484C9A"/>
</svg>
