<svg width="892" height="933" viewBox="0 0 892 933" fill="none" xmlns="http://www.w3.org/2000/svg">
<g filter="url(#filter0_iiii_495_9392)">
<path d="M630.786 157.524C663.063 196.475 603.331 278.552 623.748 327.667C650.461 391.928 745.98 393.411 758.626 465.054C771.461 537.769 732.525 622.383 687.293 687.673C638.371 758.287 571.912 821.177 498.361 840.727C425.674 860.047 354.418 832.936 298.166 791.1C248.322 754.029 237.153 679.523 205.004 622.546C173.923 567.464 112.135 531.715 112.324 461.744C112.514 391.652 156.719 319.765 205.966 267.722C249.522 221.692 309.337 216.032 363.89 195.89C405.573 180.499 445.577 169.722 487.833 163.647C536.805 156.608 599.996 120.368 630.786 157.524Z" fill="#484C9A"/>
</g>
<defs>
<filter id="filter0_iiii_495_9392" x="-1.66309" y="0" width="893.36" height="948.078" filterUnits="userSpaceOnUse" color-interpolation-filters="sRGB">
<feFlood flood-opacity="0" result="BackgroundImageFix"/>
<feBlend mode="normal" in="SourceGraphic" in2="BackgroundImageFix" result="shape"/>
<feColorMatrix in="SourceAlpha" type="matrix" values="0 0 0 0 0 0 0 0 0 0 0 0 0 0 0 0 0 0 127 0" result="hardAlpha"/>
<feOffset dy="16"/>
<feGaussianBlur stdDeviation="16"/>
<feComposite in2="hardAlpha" operator="arithmetic" k2="-1" k3="1"/>
<feColorMatrix type="matrix" values="0 0 0 0 0 0 0 0 0 0 0 0 0 0 0 0 0 0 0.16 0"/>
<feBlend mode="normal" in2="shape" result="effect1_innerShadow_495_9392"/>
<feColorMatrix in="SourceAlpha" type="matrix" values="0 0 0 0 0 0 0 0 0 0 0 0 0 0 0 0 0 0 127 0" result="hardAlpha"/>
<feOffset dy="8"/>
<feGaussianBlur stdDeviation="8"/>
<feComposite in2="hardAlpha" operator="arithmetic" k2="-1" k3="1"/>
<feColorMatrix type="matrix" values="0 0 0 0 0 0 0 0 0 0 0 0 0 0 0 0 0 0 0.12 0"/>
<feBlend mode="normal" in2="effect1_innerShadow_495_9392" result="effect2_innerShadow_495_9392"/>
<feColorMatrix in="SourceAlpha" type="matrix" values="0 0 0 0 0 0 0 0 0 0 0 0 0 0 0 0 0 0 127 0" result="hardAlpha"/>
<feOffset dy="4"/>
<feGaussianBlur stdDeviation="4"/>
<feComposite in2="hardAlpha" operator="arithmetic" k2="-1" k3="1"/>
<feColorMatrix type="matrix" values="0 0 0 0 0 0 0 0 0 0 0 0 0 0 0 0 0 0 0.12 0"/>
<feBlend mode="normal" in2="effect2_innerShadow_495_9392" result="effect3_innerShadow_495_9392"/>
<feColorMatrix in="SourceAlpha" type="matrix" values="0 0 0 0 0 0 0 0 0 0 0 0 0 0 0 0 0 0 127 0" result="hardAlpha"/>
<feOffset dy="2"/>
<feGaussianBlur stdDeviation="2"/>
<feComposite in2="hardAlpha" operator="arithmetic" k2="-1" k3="1"/>
<feColorMatrix type="matrix" values="0 0 0 0 0 0 0 0 0 0 0 0 0 0 0 0 0 0 0.12 0"/>
<feBlend mode="normal" in2="effect3_innerShadow_495_9392" result="effect4_innerShadow_495_9392"/>
</filter>
</defs>
</svg>
